<svg width="53" height="61" viewBox="0 0 53 61" fill="none" xmlns="http://www.w3.org/2000/svg">
<path d="M52.3069 15.8047L26.2942 0.870491L0.281494 15.8047V29.2112L6.30015 25.7383V19.2605L26.2942 7.78185L46.2882 19.2605V21.8319L52.3069 18.3583V15.8047Z" fill="#23155B"/>
<path d="M46.2882 42.2165L26.2942 53.6951L6.30014 42.2165V36.5022L15.0771 31.4372L22.3586 35.6401L28.967 31.8258L21.6848 27.6236L15.0764 23.8087L8.46799 27.6236L6.30233 28.8736L0.28363 32.3472V45.6716L26.2963 60.6058L52.309 45.6716V32.2651L46.2904 35.7387L46.2882 42.2165Z" fill="#23155B"/>
<path d="M46.2882 24.9723L31.6887 33.4008L25.0803 37.2151L31.6887 41.0301L38.297 37.2151L46.286 32.6044L52.3047 29.1308V21.4994L46.2882 24.9723Z" fill="#8053FF"/>
</svg>
