<svg width="53" height="61" viewBox="0 0 53 61" fill="none" xmlns="http://www.w3.org/2000/svg">
<g id="logo 1" clip-path="url(#clip0_727_2)">
<g id="Group 79">
<g id="Group 4">
<g id="Group 3">
<path id="Path 4" d="M52.0254 15.6854L26.0127 0.751099L0 15.6854V29.0918L6.01866 25.6189V19.1411L26.0127 7.66246L46.0067 19.1411V21.7125L52.0254 18.2389V15.6854Z" fill="#23155B"/>
<path id="Path 5" d="M46.0067 42.0971L26.0127 53.5757L6.01865 42.0971V36.3828L14.7957 31.3178L22.0771 35.5207L28.6855 31.7064L21.4033 27.5042L14.7949 23.6893L8.1865 27.5042L6.02084 28.7542L0.00214386 32.2278V45.5522L26.0148 60.4864L52.0275 45.5522V32.1457L46.0089 35.6193L46.0067 42.0971Z" fill="#23155B"/>
</g>
<path id="Path 6" d="M46.0067 24.8529L31.4072 33.2814L24.7988 37.0957L31.4072 40.9107L38.0155 37.0957L46.0045 32.485L52.0232 29.0114V21.38L46.0067 24.8529Z" fill="#8053FF"/>
</g>
</g>
</g>
<defs>
<clipPath id="clip0_727_2">
<rect width="52.437" height="60" fill="white" transform="translate(0 0.75)"/>
</clipPath>
</defs>
</svg>
